<svg width="361" height="150" viewBox="0 0 361 150" fill="none" xmlns="http://www.w3.org/2000/svg">
<path d="M117.776 81.7085H160.464V93.5418H133.631V100.354H156.589V111.688H133.631V119.229H160.964V131.063H117.776V81.7085Z" fill="white"/>
<path d="M178.896 131.063L161.396 81.7085H178.312L188.229 114.708H188.5L198.479 81.7085H214.687L197.271 131.063H178.896Z" fill="white"/>
<path d="M250.282 131.063L248.199 124.104H230.907L228.824 131.063H212.595L230.616 81.7085H249.053L267.053 131.063H250.282ZM234.199 113.063H244.886L239.72 95.4793H239.428L234.199 113.063Z" fill="white"/>
<path d="M268.918 81.7085H284.773V118.438H310.106V131.063H268.918V81.7085Z" fill="white"/>
<path d="M345.53 81.7085C348.014 81.7085 350.301 82.2241 352.384 83.2502C354.467 84.2814 356.118 85.7241 357.342 87.5835C358.561 89.4481 359.176 91.5314 359.176 93.8335C359.176 99.9064 356.426 103.729 350.926 105.313V105.583C357.186 107.031 360.322 111.146 360.322 117.938C360.322 120.521 359.681 122.807 358.405 124.792C357.139 126.781 355.405 128.323 353.197 129.417C350.999 130.516 348.592 131.063 345.967 131.063H312.676V81.7085H345.53ZM328.53 100.938H339.426C340.478 100.938 341.353 100.573 342.051 99.8335C342.743 99.0835 343.092 98.1616 343.092 97.0627V96.3335C343.092 95.2814 342.728 94.3856 342.009 93.646C341.301 92.9116 340.436 92.5418 339.426 92.5418H328.53V100.938ZM328.53 119.583H340.592C341.634 119.583 342.499 119.219 343.197 118.479C343.889 117.729 344.238 116.807 344.238 115.708V115C344.238 113.891 343.889 112.969 343.197 112.229C342.499 111.495 341.634 111.125 340.592 111.125H328.53V119.583Z" fill="white"/>
<mask id="mask0_35_556" style="mask-type:luminance" maskUnits="userSpaceOnUse" x="0" y="0" width="135" height="146">
<path d="M0 0H135V146H0V0Z" fill="white"/>
</mask>
<g mask="url(#mask0_35_556)">
<path fill-rule="evenodd" clip-rule="evenodd" d="M27.0417 91.4897C12.1042 91.4897 0 103.599 0 118.537C0 133.474 12.1042 145.578 27.0417 145.578C41.9792 145.578 54.0833 133.474 54.0833 118.537C54.0833 118.104 54.0729 117.682 54.0521 117.261C54.0573 117.323 54.0625 117.386 54.0677 117.448V20.3647C57.2396 22.5575 60.4792 24.4012 63.7083 26.0314C85.8229 37.2137 99.4948 37.4845 93.8021 75.2814C90.5781 58.0887 82.6615 51.8856 63.7083 49.4377V131.891H115.484L83.276 84.797C89.526 83.3543 112.052 88.6147 127.24 70.0158C132.615 63.4272 135.057 54.5991 135.057 43.9272V43.547C135.057 29.8595 130.693 19.1877 121.969 11.5262C113.24 3.86995 101.026 0.0366211 85.3281 0.0366211H39.5573V94.5575C39.5938 94.5731 39.6302 94.5939 39.6667 94.6147C35.901 92.6252 31.6042 91.4897 27.0417 91.4897Z" fill="white"/>
</g>
<path d="M64.2598 146.402V136.965H65.3639L69.0723 142.569L72.7598 136.965H73.8639V146.402H72.6764V139.194L69.5514 143.902H68.5723L65.4473 139.173V146.402H64.2598Z" fill="white"/>
<path d="M84.1994 146.569C83.2827 146.569 82.564 146.277 82.0535 145.694C81.5379 145.1 81.2827 144.298 81.2827 143.298V139.402H82.4077V143.194C82.4077 143.892 82.5796 144.444 82.9285 144.861C83.2723 145.277 83.7463 145.486 84.3452 145.486C84.9963 145.486 85.5223 145.257 85.9285 144.798C86.3452 144.329 86.5535 143.71 86.5535 142.944V139.402H87.6994V146.402H86.7619L86.6369 145.382C86.3296 145.798 85.9598 146.105 85.5327 146.298C85.116 146.475 84.6681 146.569 84.1994 146.569Z" fill="white"/>
<path d="M97.667 146.569C96.7503 146.569 96.0107 146.356 95.4587 145.923C94.9014 145.496 94.6149 144.923 94.6045 144.215H95.7295C95.7399 144.632 95.917 144.965 96.2503 145.215C96.5941 145.455 97.068 145.569 97.667 145.569C98.2087 145.569 98.6305 145.481 98.9378 145.298C99.2399 145.106 99.3962 144.856 99.3962 144.548C99.3962 144.231 99.2347 143.975 98.917 143.778C98.5941 143.585 98.0941 143.423 97.417 143.298C96.5107 143.147 95.8389 142.903 95.3962 142.569C94.9639 142.225 94.7503 141.778 94.7503 141.236C94.7503 140.6 94.9847 140.106 95.4587 139.757C95.943 139.413 96.6097 139.236 97.4587 139.236C98.318 139.236 99.0055 139.434 99.5212 139.819C100.047 140.194 100.334 140.731 100.375 141.423H99.2503C99.2191 141.038 99.0472 140.746 98.7295 140.548C98.4222 140.34 98.0055 140.236 97.4795 140.236C96.9795 140.236 96.5837 140.33 96.292 140.507C96.0107 140.673 95.8753 140.918 95.8753 141.236C95.8753 141.528 96.0107 141.757 96.292 141.923C96.5837 142.09 97.0941 142.246 97.8337 142.382C99.6097 142.731 100.5 143.46 100.5 144.569C100.5 145.168 100.24 145.653 99.7295 146.028C99.2139 146.392 98.5264 146.569 97.667 146.569Z" fill="white"/>
<path d="M107.415 146.403V139.403H108.561V146.403H107.415ZM107.061 137.382C107.061 137.121 107.144 136.903 107.311 136.736C107.478 136.569 107.696 136.486 107.978 136.486C108.254 136.486 108.478 136.569 108.644 136.736C108.811 136.903 108.894 137.121 108.894 137.382C108.894 137.632 108.811 137.84 108.644 138.007C108.478 138.173 108.254 138.257 107.978 138.257C107.696 138.257 107.478 138.173 107.311 138.007C107.144 137.84 107.061 137.632 107.061 137.382Z" fill="white"/>
<path d="M119.029 146.569C118.331 146.569 117.717 146.413 117.175 146.111C116.633 145.793 116.206 145.356 115.904 144.798C115.597 144.246 115.446 143.611 115.446 142.903C115.446 142.194 115.597 141.564 115.904 141.007C116.206 140.455 116.633 140.022 117.175 139.715C117.717 139.397 118.331 139.236 119.029 139.236C119.612 139.236 120.144 139.35 120.633 139.569C121.118 139.778 121.529 140.085 121.862 140.486C122.196 140.876 122.425 141.335 122.55 141.861H121.404C121.196 141.376 120.883 141.001 120.467 140.736C120.05 140.46 119.571 140.319 119.029 140.319C118.555 140.319 118.133 140.434 117.758 140.653C117.383 140.861 117.092 141.168 116.883 141.569C116.675 141.96 116.571 142.403 116.571 142.903C116.571 143.403 116.675 143.85 116.883 144.236C117.092 144.626 117.383 144.934 117.758 145.153C118.133 145.376 118.555 145.486 119.029 145.486C119.597 145.486 120.097 145.34 120.529 145.048C120.956 144.746 121.258 144.335 121.425 143.819H122.612C122.389 144.668 121.956 145.34 121.321 145.84C120.68 146.33 119.915 146.569 119.029 146.569Z" fill="white"/>
<path d="M141.009 146.569C140.243 146.569 139.582 146.444 139.03 146.194C138.488 145.944 138.061 145.59 137.759 145.132C137.452 144.663 137.301 144.121 137.301 143.507H138.488C138.499 144.106 138.738 144.58 139.197 144.923C139.665 145.272 140.27 145.444 141.009 145.444C141.676 145.444 142.202 145.319 142.592 145.069C142.978 144.809 143.176 144.439 143.176 143.965C143.176 143.522 142.988 143.168 142.613 142.903C142.238 142.642 141.618 142.413 140.759 142.215C139.603 141.939 138.759 141.585 138.217 141.153C137.676 140.71 137.405 140.126 137.405 139.403C137.405 138.6 137.702 137.965 138.301 137.507C138.91 137.038 139.738 136.798 140.78 136.798C141.832 136.798 142.665 137.064 143.28 137.59C143.905 138.121 144.217 138.84 144.217 139.757H143.051C143.035 139.189 142.827 138.746 142.426 138.423C142.02 138.09 141.473 137.923 140.78 137.923C140.098 137.923 139.561 138.059 139.176 138.319C138.801 138.585 138.613 138.944 138.613 139.403C138.613 139.778 138.785 140.106 139.134 140.382C139.493 140.647 140.134 140.892 141.051 141.111C142.259 141.403 143.118 141.772 143.634 142.215C144.145 142.663 144.405 143.231 144.405 143.923C144.405 144.746 144.092 145.392 143.467 145.861C142.853 146.335 142.035 146.569 141.009 146.569Z" fill="white"/>
<path d="M155.201 146.569C154.659 146.569 154.149 146.465 153.68 146.257C153.222 146.048 152.836 145.767 152.534 145.403V149.09H151.388V139.403H152.326L152.451 140.486C152.768 140.085 153.164 139.778 153.638 139.569C154.107 139.35 154.628 139.236 155.201 139.236C155.893 139.236 156.503 139.397 157.034 139.715C157.576 140.038 157.998 140.475 158.305 141.028C158.607 141.569 158.763 142.194 158.763 142.903C158.763 143.611 158.607 144.246 158.305 144.798C157.998 145.34 157.576 145.772 157.034 146.09C156.503 146.408 155.893 146.569 155.201 146.569ZM152.492 142.903C152.492 143.403 152.597 143.85 152.805 144.236C153.024 144.626 153.331 144.934 153.722 145.153C154.107 145.376 154.555 145.486 155.055 145.486C155.565 145.486 156.018 145.376 156.409 145.153C156.794 144.934 157.097 144.626 157.305 144.236C157.524 143.85 157.638 143.403 157.638 142.903C157.638 142.403 157.524 141.96 157.305 141.569C157.097 141.168 156.794 140.861 156.409 140.653C156.018 140.434 155.565 140.319 155.055 140.319C154.555 140.319 154.107 140.434 153.722 140.653C153.331 140.861 153.024 141.168 152.805 141.569C152.597 141.96 152.492 142.403 152.492 142.903Z" fill="white"/>
<path d="M168.686 146.569C167.978 146.569 167.353 146.413 166.811 146.111C166.28 145.809 165.863 145.376 165.561 144.819C165.254 144.267 165.103 143.626 165.103 142.903C165.103 142.184 165.254 141.543 165.561 140.986C165.863 140.434 166.29 140.001 166.832 139.694C167.373 139.392 167.988 139.236 168.686 139.236C169.436 139.236 170.082 139.413 170.623 139.757C171.175 140.106 171.603 140.59 171.894 141.215C172.186 141.83 172.316 142.543 172.29 143.361H166.248C166.332 144.017 166.592 144.538 167.04 144.923C167.483 145.314 168.03 145.507 168.686 145.507C169.144 145.507 169.561 145.413 169.936 145.215C170.321 145.022 170.623 144.736 170.832 144.361H172.123C171.842 145.043 171.399 145.585 170.79 145.986C170.175 146.376 169.478 146.569 168.686 146.569ZM166.248 142.361H171.165C171.04 141.725 170.754 141.225 170.311 140.861C169.863 140.486 169.321 140.298 168.686 140.298C168.045 140.298 167.504 140.486 167.061 140.861C166.613 141.236 166.342 141.736 166.248 142.361Z" fill="white"/>
<path d="M181.438 146.507C180.589 146.507 179.928 146.319 179.459 145.944C178.985 145.559 178.75 145.038 178.75 144.382C178.75 143.746 178.964 143.236 179.396 142.861C179.839 142.486 180.428 142.298 181.167 142.298H184.021V142.028C184.021 141.486 183.844 141.064 183.5 140.757C183.167 140.439 182.698 140.278 182.105 140.278C181.657 140.278 181.271 140.382 180.938 140.59C180.605 140.788 180.375 141.059 180.25 141.403H179.105C179.256 140.725 179.594 140.194 180.125 139.819C180.667 139.434 181.318 139.236 182.084 139.236C182.693 139.236 183.23 139.356 183.688 139.59C184.146 139.814 184.5 140.132 184.75 140.548C185.011 140.955 185.146 141.418 185.146 141.944V146.403H184.209L184.105 145.423C183.464 146.147 182.573 146.507 181.438 146.507ZM179.875 144.361C179.875 144.71 180.021 144.986 180.313 145.194C180.605 145.403 180.99 145.507 181.48 145.507C181.964 145.507 182.396 145.413 182.771 145.215C183.146 145.022 183.443 144.767 183.667 144.444C183.902 144.111 184.021 143.731 184.021 143.298H181.209C180.818 143.298 180.5 143.397 180.25 143.59C180 143.772 179.875 144.028 179.875 144.361Z" fill="white"/>
<path d="M192.433 146.403V136.423H193.578V142.34H194.453C195.006 142.34 195.438 142.246 195.745 142.048C196.047 141.856 196.308 141.475 196.516 140.903L197.037 139.403H198.245L197.537 141.319C197.256 142.1 196.875 142.642 196.391 142.944L198.578 146.403H197.224L195.287 143.319C195.162 143.35 195.021 143.371 194.87 143.382C194.714 143.382 194.563 143.382 194.412 143.382H193.578V146.403H192.433Z" fill="white"/>
<path d="M207.762 146.569C206.846 146.569 206.106 146.356 205.554 145.923C204.997 145.496 204.71 144.923 204.7 144.215H205.825C205.835 144.632 206.012 144.965 206.346 145.215C206.689 145.455 207.163 145.569 207.762 145.569C208.304 145.569 208.726 145.481 209.033 145.298C209.335 145.106 209.491 144.856 209.491 144.548C209.491 144.231 209.33 143.975 209.012 143.778C208.689 143.585 208.189 143.423 207.512 143.298C206.606 143.147 205.934 142.903 205.491 142.569C205.059 142.225 204.846 141.778 204.846 141.236C204.846 140.6 205.08 140.106 205.554 139.757C206.038 139.413 206.705 139.236 207.554 139.236C208.413 139.236 209.101 139.434 209.616 139.819C210.142 140.194 210.429 140.731 210.471 141.423H209.346C209.314 141.038 209.142 140.746 208.825 140.548C208.517 140.34 208.101 140.236 207.575 140.236C207.075 140.236 206.679 140.33 206.387 140.507C206.106 140.673 205.971 140.918 205.971 141.236C205.971 141.528 206.106 141.757 206.387 141.923C206.679 142.09 207.189 142.246 207.929 142.382C209.705 142.731 210.596 143.46 210.596 144.569C210.596 145.168 210.335 145.653 209.825 146.028C209.309 146.392 208.622 146.569 207.762 146.569Z" fill="white"/>
<path d="M217.552 147.653C217.802 147.554 217.995 147.403 218.135 147.194C218.271 146.986 218.328 146.736 218.302 146.444C218.203 146.486 218.094 146.507 217.969 146.507C217.703 146.507 217.489 146.423 217.323 146.257C217.156 146.09 217.073 145.876 217.073 145.611C217.073 145.361 217.156 145.153 217.323 144.986C217.5 144.819 217.729 144.736 218.01 144.736C218.354 144.736 218.635 144.871 218.844 145.132C219.062 145.382 219.177 145.725 219.177 146.153C219.177 146.528 219.104 146.871 218.969 147.194C218.828 147.512 218.635 147.778 218.385 147.986C218.146 148.194 217.87 148.319 217.552 148.361V147.653Z" fill="white"/>
<path d="M236.987 146.402V143.007L233.445 136.965H234.82L236.362 139.611L237.591 141.736L240.362 136.965H241.695L238.154 143.007V146.402H236.987Z" fill="white"/>
<path d="M251.269 146.569C250.53 146.569 249.884 146.413 249.332 146.111C248.775 145.793 248.337 145.356 248.019 144.798C247.712 144.246 247.561 143.611 247.561 142.903C247.561 142.184 247.712 141.548 248.019 141.007C248.337 140.455 248.775 140.022 249.332 139.715C249.884 139.397 250.53 139.236 251.269 139.236C251.988 139.236 252.629 139.397 253.186 139.715C253.738 140.022 254.17 140.455 254.478 141.007C254.795 141.548 254.957 142.184 254.957 142.903C254.957 143.611 254.795 144.246 254.478 144.798C254.17 145.356 253.738 145.793 253.186 146.111C252.629 146.413 251.988 146.569 251.269 146.569ZM248.686 142.903C248.686 143.418 248.795 143.871 249.019 144.257C249.238 144.647 249.54 144.955 249.915 145.173C250.301 145.382 250.754 145.486 251.269 145.486C251.769 145.486 252.207 145.382 252.582 145.173C252.967 144.955 253.275 144.647 253.499 144.257C253.717 143.871 253.832 143.418 253.832 142.903C253.832 142.392 253.717 141.939 253.499 141.548C253.275 141.163 252.967 140.861 252.582 140.653C252.207 140.434 251.769 140.319 251.269 140.319C250.754 140.319 250.301 140.434 249.915 140.653C249.54 140.861 249.238 141.163 249.019 141.548C248.795 141.939 248.686 142.392 248.686 142.903Z" fill="white"/>
<path d="M264.639 146.569C263.722 146.569 263.003 146.277 262.493 145.694C261.977 145.1 261.722 144.298 261.722 143.298V139.402H262.847V143.194C262.847 143.892 263.019 144.444 263.368 144.861C263.712 145.277 264.186 145.486 264.785 145.486C265.436 145.486 265.962 145.257 266.368 144.798C266.785 144.329 266.993 143.71 266.993 142.944V139.402H268.139V146.402H267.201L267.076 145.382C266.769 145.798 266.399 146.105 265.972 146.298C265.556 146.475 265.108 146.569 264.639 146.569Z" fill="white"/>
<path d="M283.965 146.402V136.965H287.569C288.221 136.965 288.788 137.09 289.278 137.34C289.762 137.59 290.137 137.939 290.403 138.382C290.679 138.829 290.819 139.371 290.819 140.007C290.819 140.772 290.616 141.402 290.215 141.902C289.825 142.392 289.283 142.725 288.59 142.902L290.965 146.402H289.528L287.236 143.027H285.153V146.402H283.965ZM285.153 141.882H287.424C288.116 141.882 288.653 141.725 289.028 141.402C289.403 141.069 289.59 140.605 289.59 140.007C289.59 139.397 289.403 138.923 289.028 138.59C288.653 138.257 288.116 138.09 287.424 138.09H285.153V141.882Z" fill="white"/>
<path d="M300.99 146.569C300.282 146.569 299.657 146.413 299.115 146.111C298.584 145.809 298.167 145.376 297.865 144.819C297.558 144.267 297.407 143.626 297.407 142.903C297.407 142.184 297.558 141.543 297.865 140.986C298.167 140.434 298.594 140.001 299.136 139.694C299.678 139.392 300.292 139.236 300.99 139.236C301.74 139.236 302.386 139.413 302.928 139.757C303.48 140.106 303.907 140.59 304.198 141.215C304.49 141.83 304.62 142.543 304.594 143.361H298.553C298.636 144.017 298.896 144.538 299.344 144.923C299.787 145.314 300.334 145.507 300.99 145.507C301.448 145.507 301.865 145.413 302.24 145.215C302.625 145.022 302.928 144.736 303.136 144.361H304.428C304.146 145.043 303.704 145.585 303.094 145.986C302.48 146.376 301.782 146.569 300.99 146.569ZM298.553 142.361H303.469C303.344 141.725 303.058 141.225 302.615 140.861C302.167 140.486 301.625 140.298 300.99 140.298C300.349 140.298 299.808 140.486 299.365 140.861C298.917 141.236 298.646 141.736 298.553 142.361Z" fill="white"/>
<path d="M313.471 146.402L310.408 139.402H311.637L312.596 141.611L314.033 144.902L315.45 141.611L316.408 139.402H317.637L314.575 146.402H313.471Z" fill="white"/>
<path d="M324.036 146.403V139.403H325.182V146.403H324.036ZM323.682 137.382C323.682 137.121 323.765 136.903 323.932 136.736C324.099 136.569 324.318 136.486 324.599 136.486C324.875 136.486 325.099 136.569 325.265 136.736C325.432 136.903 325.515 137.121 325.515 137.382C325.515 137.632 325.432 137.84 325.265 138.007C325.099 138.173 324.875 138.257 324.599 138.257C324.318 138.257 324.099 138.173 323.932 138.007C323.765 137.84 323.682 137.632 323.682 137.382Z" fill="white"/>
<path d="M335.65 146.569C334.942 146.569 334.317 146.413 333.775 146.111C333.244 145.809 332.827 145.376 332.525 144.819C332.218 144.267 332.067 143.626 332.067 142.903C332.067 142.184 332.218 141.543 332.525 140.986C332.827 140.434 333.254 140.001 333.796 139.694C334.338 139.392 334.952 139.236 335.65 139.236C336.4 139.236 337.046 139.413 337.588 139.757C338.14 140.106 338.567 140.59 338.859 141.215C339.15 141.83 339.28 142.543 339.254 143.361H333.213C333.296 144.017 333.556 144.538 334.004 144.923C334.447 145.314 334.994 145.507 335.65 145.507C336.109 145.507 336.525 145.413 336.9 145.215C337.286 145.022 337.588 144.736 337.796 144.361H339.088C338.806 145.043 338.364 145.585 337.754 145.986C337.14 146.376 336.442 146.569 335.65 146.569ZM333.213 142.361H338.129C338.004 141.725 337.718 141.225 337.275 140.861C336.827 140.486 336.286 140.298 335.65 140.298C335.01 140.298 334.468 140.486 334.025 140.861C333.577 141.236 333.306 141.736 333.213 142.361Z" fill="white"/>
<path d="M347.589 146.402L345.089 139.402H346.298L347.402 142.569L348.173 144.715L348.985 142.569L350.194 139.402H351.214L353.277 144.694L354.006 142.569L355.152 139.402H356.339L353.819 146.402H352.735L351.631 143.527L350.714 141.069L348.694 146.402H347.589Z" fill="white"/>
</svg>
