<svg width="464" height="500" viewBox="0 0 464 500" fill="none" xmlns="http://www.w3.org/2000/svg">
<mask id="mask0_35_153" style="mask-type:luminance" maskUnits="userSpaceOnUse" x="0" y="0" width="464" height="500">
<path d="M0 0H464V500H0V0Z" fill="white"/>
</mask>
<g mask="url(#mask0_35_153)">
<path fill-rule="evenodd" clip-rule="evenodd" d="M92.9013 314.136C41.588 314.136 0 355.714 0 407C0 458.287 41.588 499.85 92.9013 499.85C144.215 499.85 185.801 458.287 185.801 407C185.8 405.527 185.767 404.067 185.703 402.62C185.712 402.834 185.724 403.047 185.739 403.26V69.9122C196.645 77.4535 207.781 83.7868 218.864 89.3748C294.848 127.781 341.817 128.714 322.255 258.484C311.181 199.458 283.979 178.145 218.864 169.74V452.86H396.744L286.083 291.16C307.568 286.201 384.953 304.254 437.12 240.395C455.588 217.786 463.973 187.472 463.973 150.816V149.52C463.973 102.529 448.984 65.8682 419.011 39.5722C389.02 13.2753 347.067 0.126377 293.151 0.125488H135.901V324.662C136.025 324.724 136.151 324.797 136.275 324.864C122.909 317.802 108.018 314.119 92.9013 314.136Z" fill="black"/>
</g>
</svg>
