<svg width="464" height="500" viewBox="0 0 464 500" fill="none" xmlns="http://www.w3.org/2000/svg">
<mask id="mask0_35_147" style="mask-type:luminance" maskUnits="userSpaceOnUse" x="0" y="0" width="464" height="500">
<path d="M0 0H464V500H0V0Z" fill="white"/>
</mask>
<g mask="url(#mask0_35_147)">
<path fill-rule="evenodd" clip-rule="evenodd" d="M92.848 314.136C41.568 314.136 0 355.714 0 407C0 458.287 41.568 499.85 92.848 499.85C144.135 499.85 185.703 458.287 185.703 407C185.703 405.527 185.661 404.067 185.599 402.62L185.64 403.26V69.9122C196.541 77.4535 207.667 83.7868 218.744 89.3735C294.692 127.78 341.629 128.712 322.083 258.483C311.016 199.456 283.828 178.144 218.744 169.739V452.859H396.531L285.928 291.16C307.408 286.201 384.745 304.254 436.887 240.395C455.34 217.786 463.725 187.472 463.725 150.816V149.52C463.725 102.529 448.745 65.8682 418.788 39.5722C388.814 13.2753 346.881 0.126377 292.989 0.125488H135.828V324.662C135.953 324.724 136.077 324.797 136.203 324.864C122.844 317.802 107.959 314.119 92.848 314.136Z" fill="white"/>
</g>
</svg>
