<svg width="361" height="150" viewBox="0 0 361 150" fill="none" xmlns="http://www.w3.org/2000/svg">
<path d="M117.776 81.7085H160.464V93.5418H133.631V100.354H156.589V111.688H133.631V119.229H160.964V131.063H117.776V81.7085Z" fill="black"/>
<path d="M178.896 131.063L161.396 81.7085H178.312L188.229 114.708H188.5L198.479 81.7085H214.687L197.271 131.063H178.896Z" fill="black"/>
<path d="M250.282 131.063L248.199 124.104H230.907L228.824 131.063H212.595L230.616 81.7085H249.053L267.053 131.063H250.282ZM234.199 113.063H244.886L239.72 95.4793H239.428L234.199 113.063Z" fill="black"/>
<path d="M268.918 81.7085H284.773V118.438H310.106V131.063H268.918V81.7085Z" fill="black"/>
<path d="M345.53 81.7085C348.014 81.7085 350.301 82.2241 352.384 83.2502C354.467 84.2814 356.118 85.7241 357.342 87.5835C358.561 89.4481 359.176 91.5314 359.176 93.8335C359.176 99.9064 356.426 103.729 350.926 105.313V105.583C357.186 107.031 360.322 111.146 360.322 117.938C360.322 120.521 359.681 122.807 358.405 124.792C357.139 126.781 355.405 128.323 353.197 129.417C350.999 130.516 348.592 131.063 345.967 131.063H312.676V81.7085H345.53ZM328.53 100.938H339.426C340.478 100.938 341.353 100.573 342.051 99.8335C342.743 99.0835 343.092 98.1616 343.092 97.0627V96.3335C343.092 95.2814 342.728 94.3856 342.009 93.646C341.301 92.9116 340.436 92.5418 339.426 92.5418H328.53V100.938ZM328.53 119.583H340.592C341.634 119.583 342.499 119.219 343.197 118.479C343.889 117.729 344.238 116.807 344.238 115.708V115C344.238 113.891 343.889 112.969 343.197 112.229C342.499 111.495 341.634 111.125 340.592 111.125H328.53V119.583Z" fill="black"/>
<mask id="mask0_35_273" style="mask-type:luminance" maskUnits="userSpaceOnUse" x="0" y="0" width="135" height="146">
<path d="M0 0H135V146H0V0Z" fill="white"/>
</mask>
<g mask="url(#mask0_35_273)">
<path fill-rule="evenodd" clip-rule="evenodd" d="M27.0313 91.7241C12.099 91.7241 0 103.865 0 118.839C0 133.818 12.099 145.953 27.0313 145.953C41.9583 145.953 54.0573 133.818 54.0573 118.839C54.0573 118.412 54.0469 117.985 54.0313 117.563C54.0313 117.625 54.0365 117.688 54.0417 117.75V20.4168C57.2135 22.6147 60.4531 24.4637 63.6771 26.0991C85.7865 37.3127 99.4531 37.5835 93.7604 75.4741C90.5365 58.2397 82.625 52.0158 63.6771 49.5627V132.229H115.432L83.2344 85.0158C89.4844 83.5679 112 88.8387 127.182 70.1929C132.552 63.5939 134.995 54.7397 134.995 44.0366V43.6616C134.995 29.9377 130.63 19.2345 121.911 11.5575C113.188 3.88037 100.979 0.0366211 85.2917 0.0366211H39.5417V94.797C39.5781 94.8179 39.6146 94.8387 39.651 94.8595C35.8802 92.8595 31.5885 91.7241 27.0313 91.7241Z" fill="black"/>
</g>
<path d="M64.2598 146.402V136.965H65.3639L69.0723 142.569L72.7598 136.965H73.8639V146.402H72.6764V139.194L69.5514 143.902H68.5723L65.4473 139.173V146.402H64.2598Z" fill="black"/>
<path d="M84.1994 146.569C83.2827 146.569 82.564 146.277 82.0535 145.694C81.5379 145.1 81.2827 144.298 81.2827 143.298V139.402H82.4077V143.194C82.4077 143.892 82.5796 144.444 82.9285 144.861C83.2723 145.277 83.7463 145.486 84.3452 145.486C84.9963 145.486 85.5223 145.257 85.9285 144.798C86.3452 144.329 86.5535 143.71 86.5535 142.944V139.402H87.6994V146.402H86.7619L86.6369 145.382C86.3296 145.798 85.9598 146.105 85.5327 146.298C85.116 146.475 84.6681 146.569 84.1994 146.569Z" fill="black"/>
<path d="M97.667 146.569C96.7503 146.569 96.0107 146.355 95.4587 145.923C94.9014 145.496 94.6149 144.923 94.6045 144.215H95.7295C95.7399 144.631 95.917 144.965 96.2503 145.215C96.5941 145.454 97.068 145.569 97.667 145.569C98.2087 145.569 98.6305 145.48 98.9378 145.298C99.2399 145.105 99.3962 144.855 99.3962 144.548C99.3962 144.23 99.2347 143.975 98.917 143.777C98.5941 143.584 98.0941 143.423 97.417 143.298C96.5107 143.147 95.8389 142.902 95.3962 142.569C94.9639 142.225 94.7503 141.777 94.7503 141.235C94.7503 140.6 94.9847 140.105 95.4587 139.756C95.943 139.412 96.6097 139.235 97.4587 139.235C98.318 139.235 99.0055 139.433 99.5212 139.819C100.047 140.194 100.334 140.73 100.375 141.423H99.2503C99.2191 141.037 99.0472 140.746 98.7295 140.548C98.4222 140.34 98.0055 140.235 97.4795 140.235C96.9795 140.235 96.5837 140.329 96.292 140.506C96.0107 140.673 95.8753 140.918 95.8753 141.235C95.8753 141.527 96.0107 141.756 96.292 141.923C96.5837 142.09 97.0941 142.246 97.8337 142.381C99.6097 142.73 100.5 143.459 100.5 144.569C100.5 145.168 100.24 145.652 99.7295 146.027C99.2139 146.392 98.5264 146.569 97.667 146.569Z" fill="black"/>
<path d="M107.415 146.402V139.402H108.561V146.402H107.415ZM107.061 137.381C107.061 137.121 107.144 136.902 107.311 136.735C107.478 136.569 107.696 136.485 107.978 136.485C108.254 136.485 108.478 136.569 108.644 136.735C108.811 136.902 108.894 137.121 108.894 137.381C108.894 137.631 108.811 137.84 108.644 138.006C108.478 138.173 108.254 138.256 107.978 138.256C107.696 138.256 107.478 138.173 107.311 138.006C107.144 137.84 107.061 137.631 107.061 137.381Z" fill="black"/>
<path d="M119.029 146.569C118.331 146.569 117.717 146.412 117.175 146.11C116.633 145.793 116.206 145.355 115.904 144.798C115.597 144.246 115.446 143.61 115.446 142.902C115.446 142.194 115.597 141.563 115.904 141.006C116.206 140.454 116.633 140.022 117.175 139.715C117.717 139.397 118.331 139.235 119.029 139.235C119.612 139.235 120.144 139.35 120.633 139.569C121.118 139.777 121.529 140.084 121.862 140.485C122.196 140.876 122.425 141.334 122.55 141.86H121.404C121.196 141.376 120.883 141.001 120.467 140.735C120.05 140.459 119.571 140.319 119.029 140.319C118.555 140.319 118.133 140.433 117.758 140.652C117.383 140.86 117.092 141.168 116.883 141.569C116.675 141.959 116.571 142.402 116.571 142.902C116.571 143.402 116.675 143.85 116.883 144.235C117.092 144.626 117.383 144.933 117.758 145.152C118.133 145.376 118.555 145.485 119.029 145.485C119.597 145.485 120.097 145.34 120.529 145.048C120.956 144.746 121.258 144.334 121.425 143.819H122.612C122.389 144.668 121.956 145.34 121.321 145.84C120.68 146.329 119.915 146.569 119.029 146.569Z" fill="black"/>
<path d="M141.009 146.569C140.243 146.569 139.582 146.444 139.03 146.194C138.488 145.944 138.061 145.59 137.759 145.131C137.452 144.662 137.301 144.121 137.301 143.506H138.488C138.499 144.105 138.738 144.579 139.197 144.923C139.665 145.272 140.27 145.444 141.009 145.444C141.676 145.444 142.202 145.319 142.592 145.069C142.978 144.808 143.176 144.438 143.176 143.965C143.176 143.522 142.988 143.168 142.613 142.902C142.238 142.642 141.618 142.412 140.759 142.215C139.603 141.938 138.759 141.584 138.217 141.152C137.676 140.709 137.405 140.126 137.405 139.402C137.405 138.6 137.702 137.965 138.301 137.506C138.91 137.037 139.738 136.798 140.78 136.798C141.832 136.798 142.665 137.063 143.28 137.59C143.905 138.121 144.217 138.84 144.217 139.756H143.051C143.035 139.188 142.827 138.746 142.426 138.423C142.02 138.09 141.473 137.923 140.78 137.923C140.098 137.923 139.561 138.058 139.176 138.319C138.801 138.584 138.613 138.944 138.613 139.402C138.613 139.777 138.785 140.105 139.134 140.381C139.493 140.647 140.134 140.892 141.051 141.11C142.259 141.402 143.118 141.772 143.634 142.215C144.145 142.662 144.405 143.23 144.405 143.923C144.405 144.746 144.092 145.392 143.467 145.86C142.853 146.334 142.035 146.569 141.009 146.569Z" fill="black"/>
<path d="M155.201 146.569C154.659 146.569 154.149 146.465 153.68 146.256C153.222 146.048 152.836 145.767 152.534 145.402V149.09H151.388V139.402H152.326L152.451 140.485C152.768 140.084 153.164 139.777 153.638 139.569C154.107 139.35 154.628 139.235 155.201 139.235C155.893 139.235 156.503 139.397 157.034 139.715C157.576 140.037 157.998 140.475 158.305 141.027C158.607 141.569 158.763 142.194 158.763 142.902C158.763 143.61 158.607 144.246 158.305 144.798C157.998 145.34 157.576 145.772 157.034 146.09C156.503 146.407 155.893 146.569 155.201 146.569ZM152.492 142.902C152.492 143.402 152.597 143.85 152.805 144.235C153.024 144.626 153.331 144.933 153.722 145.152C154.107 145.376 154.555 145.485 155.055 145.485C155.565 145.485 156.018 145.376 156.409 145.152C156.794 144.933 157.097 144.626 157.305 144.235C157.524 143.85 157.638 143.402 157.638 142.902C157.638 142.402 157.524 141.959 157.305 141.569C157.097 141.168 156.794 140.86 156.409 140.652C156.018 140.433 155.565 140.319 155.055 140.319C154.555 140.319 154.107 140.433 153.722 140.652C153.331 140.86 153.024 141.168 152.805 141.569C152.597 141.959 152.492 142.402 152.492 142.902Z" fill="black"/>
<path d="M168.686 146.569C167.978 146.569 167.353 146.412 166.811 146.11C166.28 145.808 165.863 145.376 165.561 144.819C165.254 144.267 165.103 143.626 165.103 142.902C165.103 142.183 165.254 141.543 165.561 140.985C165.863 140.433 166.29 140.001 166.832 139.694C167.373 139.392 167.988 139.235 168.686 139.235C169.436 139.235 170.082 139.412 170.623 139.756C171.175 140.105 171.603 140.59 171.894 141.215C172.186 141.829 172.316 142.543 172.29 143.36H166.248C166.332 144.017 166.592 144.537 167.04 144.923C167.483 145.313 168.03 145.506 168.686 145.506C169.144 145.506 169.561 145.412 169.936 145.215C170.321 145.022 170.623 144.735 170.832 144.36H172.123C171.842 145.043 171.399 145.584 170.79 145.985C170.175 146.376 169.478 146.569 168.686 146.569ZM166.248 142.36H171.165C171.04 141.725 170.754 141.225 170.311 140.86C169.863 140.485 169.321 140.298 168.686 140.298C168.045 140.298 167.504 140.485 167.061 140.86C166.613 141.235 166.342 141.735 166.248 142.36Z" fill="black"/>
<path d="M181.438 146.506C180.589 146.506 179.928 146.319 179.459 145.944C178.985 145.558 178.75 145.037 178.75 144.381C178.75 143.746 178.964 143.235 179.396 142.86C179.839 142.485 180.428 142.298 181.167 142.298H184.021V142.027C184.021 141.485 183.844 141.063 183.5 140.756C183.167 140.438 182.698 140.277 182.105 140.277C181.657 140.277 181.271 140.381 180.938 140.59C180.605 140.787 180.375 141.058 180.25 141.402H179.105C179.256 140.725 179.594 140.194 180.125 139.819C180.667 139.433 181.318 139.235 182.084 139.235C182.693 139.235 183.23 139.355 183.688 139.59C184.146 139.813 184.5 140.131 184.75 140.548C185.011 140.954 185.146 141.418 185.146 141.944V146.402H184.209L184.105 145.423C183.464 146.147 182.573 146.506 181.438 146.506ZM179.875 144.36C179.875 144.709 180.021 144.985 180.313 145.194C180.605 145.402 180.99 145.506 181.48 145.506C181.964 145.506 182.396 145.412 182.771 145.215C183.146 145.022 183.443 144.767 183.667 144.444C183.902 144.11 184.021 143.73 184.021 143.298H181.209C180.818 143.298 180.5 143.397 180.25 143.59C180 143.772 179.875 144.027 179.875 144.36Z" fill="black"/>
<path d="M192.433 146.402V136.423H193.578V142.34H194.453C195.006 142.34 195.438 142.246 195.745 142.048C196.047 141.855 196.308 141.475 196.516 140.902L197.037 139.402H198.245L197.537 141.319C197.256 142.1 196.875 142.642 196.391 142.944L198.578 146.402H197.224L195.287 143.319C195.162 143.35 195.021 143.371 194.87 143.381C194.714 143.381 194.563 143.381 194.412 143.381H193.578V146.402H192.433Z" fill="black"/>
<path d="M207.762 146.569C206.846 146.569 206.106 146.355 205.554 145.923C204.997 145.496 204.71 144.923 204.7 144.215H205.825C205.835 144.631 206.012 144.965 206.346 145.215C206.689 145.454 207.163 145.569 207.762 145.569C208.304 145.569 208.726 145.48 209.033 145.298C209.335 145.105 209.491 144.855 209.491 144.548C209.491 144.23 209.33 143.975 209.012 143.777C208.689 143.584 208.189 143.423 207.512 143.298C206.606 143.147 205.934 142.902 205.491 142.569C205.059 142.225 204.846 141.777 204.846 141.235C204.846 140.6 205.08 140.105 205.554 139.756C206.038 139.412 206.705 139.235 207.554 139.235C208.413 139.235 209.101 139.433 209.616 139.819C210.142 140.194 210.429 140.73 210.471 141.423H209.346C209.314 141.037 209.142 140.746 208.825 140.548C208.517 140.34 208.101 140.235 207.575 140.235C207.075 140.235 206.679 140.329 206.387 140.506C206.106 140.673 205.971 140.918 205.971 141.235C205.971 141.527 206.106 141.756 206.387 141.923C206.679 142.09 207.189 142.246 207.929 142.381C209.705 142.73 210.596 143.459 210.596 144.569C210.596 145.168 210.335 145.652 209.825 146.027C209.309 146.392 208.622 146.569 207.762 146.569Z" fill="black"/>
<path d="M217.552 147.652C217.802 147.553 217.995 147.402 218.135 147.194C218.271 146.985 218.328 146.735 218.302 146.444C218.203 146.485 218.094 146.506 217.969 146.506C217.703 146.506 217.489 146.423 217.323 146.256C217.156 146.09 217.073 145.876 217.073 145.61C217.073 145.36 217.156 145.152 217.323 144.985C217.5 144.819 217.729 144.735 218.01 144.735C218.354 144.735 218.635 144.871 218.844 145.131C219.062 145.381 219.177 145.725 219.177 146.152C219.177 146.527 219.104 146.871 218.969 147.194C218.828 147.511 218.635 147.777 218.385 147.985C218.146 148.194 217.87 148.319 217.552 148.36V147.652Z" fill="black"/>
<path d="M236.987 146.402V143.007L233.445 136.965H234.82L236.362 139.611L237.591 141.736L240.362 136.965H241.695L238.154 143.007V146.402H236.987Z" fill="black"/>
<path d="M251.269 146.569C250.53 146.569 249.884 146.412 249.332 146.11C248.775 145.793 248.337 145.355 248.019 144.798C247.712 144.246 247.561 143.61 247.561 142.902C247.561 142.183 247.712 141.548 248.019 141.006C248.337 140.454 248.775 140.022 249.332 139.715C249.884 139.397 250.53 139.235 251.269 139.235C251.988 139.235 252.629 139.397 253.186 139.715C253.738 140.022 254.17 140.454 254.478 141.006C254.795 141.548 254.957 142.183 254.957 142.902C254.957 143.61 254.795 144.246 254.478 144.798C254.17 145.355 253.738 145.793 253.186 146.11C252.629 146.412 251.988 146.569 251.269 146.569ZM248.686 142.902C248.686 143.418 248.795 143.871 249.019 144.256C249.238 144.647 249.54 144.954 249.915 145.173C250.301 145.381 250.754 145.485 251.269 145.485C251.769 145.485 252.207 145.381 252.582 145.173C252.967 144.954 253.275 144.647 253.499 144.256C253.717 143.871 253.832 143.418 253.832 142.902C253.832 142.392 253.717 141.938 253.499 141.548C253.275 141.162 252.967 140.86 252.582 140.652C252.207 140.433 251.769 140.319 251.269 140.319C250.754 140.319 250.301 140.433 249.915 140.652C249.54 140.86 249.238 141.162 249.019 141.548C248.795 141.938 248.686 142.392 248.686 142.902Z" fill="black"/>
<path d="M264.639 146.569C263.722 146.569 263.003 146.277 262.493 145.694C261.977 145.1 261.722 144.298 261.722 143.298V139.402H262.847V143.194C262.847 143.892 263.019 144.444 263.368 144.861C263.712 145.277 264.186 145.486 264.785 145.486C265.436 145.486 265.962 145.257 266.368 144.798C266.785 144.329 266.993 143.71 266.993 142.944V139.402H268.139V146.402H267.201L267.076 145.382C266.769 145.798 266.399 146.105 265.972 146.298C265.556 146.475 265.108 146.569 264.639 146.569Z" fill="black"/>
<path d="M283.965 146.402V136.965H287.569C288.221 136.965 288.788 137.09 289.278 137.34C289.762 137.59 290.137 137.939 290.403 138.382C290.679 138.829 290.819 139.371 290.819 140.007C290.819 140.772 290.616 141.402 290.215 141.902C289.825 142.392 289.283 142.725 288.59 142.902L290.965 146.402H289.528L287.236 143.027H285.153V146.402H283.965ZM285.153 141.882H287.424C288.116 141.882 288.653 141.725 289.028 141.402C289.403 141.069 289.59 140.605 289.59 140.007C289.59 139.397 289.403 138.923 289.028 138.59C288.653 138.257 288.116 138.09 287.424 138.09H285.153V141.882Z" fill="black"/>
<path d="M300.99 146.569C300.282 146.569 299.657 146.412 299.115 146.11C298.584 145.808 298.167 145.376 297.865 144.819C297.558 144.267 297.407 143.626 297.407 142.902C297.407 142.183 297.558 141.543 297.865 140.985C298.167 140.433 298.594 140.001 299.136 139.694C299.678 139.392 300.292 139.235 300.99 139.235C301.74 139.235 302.386 139.412 302.928 139.756C303.48 140.105 303.907 140.59 304.198 141.215C304.49 141.829 304.62 142.543 304.594 143.36H298.553C298.636 144.017 298.896 144.537 299.344 144.923C299.787 145.313 300.334 145.506 300.99 145.506C301.448 145.506 301.865 145.412 302.24 145.215C302.625 145.022 302.928 144.735 303.136 144.36H304.428C304.146 145.043 303.704 145.584 303.094 145.985C302.48 146.376 301.782 146.569 300.99 146.569ZM298.553 142.36H303.469C303.344 141.725 303.058 141.225 302.615 140.86C302.167 140.485 301.625 140.298 300.99 140.298C300.349 140.298 299.808 140.485 299.365 140.86C298.917 141.235 298.646 141.735 298.553 142.36Z" fill="black"/>
<path d="M313.471 146.402L310.408 139.402H311.637L312.596 141.611L314.033 144.902L315.45 141.611L316.408 139.402H317.637L314.575 146.402H313.471Z" fill="black"/>
<path d="M324.036 146.402V139.402H325.182V146.402H324.036ZM323.682 137.381C323.682 137.121 323.765 136.902 323.932 136.735C324.099 136.569 324.318 136.485 324.599 136.485C324.875 136.485 325.099 136.569 325.265 136.735C325.432 136.902 325.515 137.121 325.515 137.381C325.515 137.631 325.432 137.84 325.265 138.006C325.099 138.173 324.875 138.256 324.599 138.256C324.318 138.256 324.099 138.173 323.932 138.006C323.765 137.84 323.682 137.631 323.682 137.381Z" fill="black"/>
<path d="M335.65 146.569C334.942 146.569 334.317 146.412 333.775 146.11C333.244 145.808 332.827 145.376 332.525 144.819C332.218 144.267 332.067 143.626 332.067 142.902C332.067 142.183 332.218 141.543 332.525 140.985C332.827 140.433 333.254 140.001 333.796 139.694C334.338 139.392 334.952 139.235 335.65 139.235C336.4 139.235 337.046 139.412 337.588 139.756C338.14 140.105 338.567 140.59 338.859 141.215C339.15 141.829 339.28 142.543 339.254 143.36H333.213C333.296 144.017 333.556 144.537 334.004 144.923C334.447 145.313 334.994 145.506 335.65 145.506C336.109 145.506 336.525 145.412 336.9 145.215C337.286 145.022 337.588 144.735 337.796 144.36H339.088C338.806 145.043 338.364 145.584 337.754 145.985C337.14 146.376 336.442 146.569 335.65 146.569ZM333.213 142.36H338.129C338.004 141.725 337.718 141.225 337.275 140.86C336.827 140.485 336.286 140.298 335.65 140.298C335.01 140.298 334.468 140.485 334.025 140.86C333.577 141.235 333.306 141.735 333.213 142.36Z" fill="black"/>
<path d="M347.589 146.402L345.089 139.402H346.298L347.402 142.569L348.173 144.715L348.985 142.569L350.194 139.402H351.214L353.277 144.694L354.006 142.569L355.152 139.402H356.339L353.819 146.402H352.735L351.631 143.527L350.714 141.069L348.694 146.402H347.589Z" fill="black"/>
</svg>
