<svg width="361" height="147" viewBox="0 0 361 147" fill="none" xmlns="http://www.w3.org/2000/svg">
<path d="M118.224 82.1826H160.912V94.016H134.078V100.828H157.037V112.162H134.078V119.703H161.412V131.537H118.224V82.1826Z" fill="black"/>
<path d="M179.343 131.537L161.843 82.1826H178.76L188.677 115.183H188.947L198.927 82.1826H215.135L197.718 131.537H179.343Z" fill="black"/>
<path d="M250.73 131.537L248.647 124.578H231.355L229.272 131.537H213.042L231.063 82.1826H249.501L267.501 131.537H250.73ZM234.647 113.537H245.334L240.167 95.9535H239.876L234.647 113.537Z" fill="black"/>
<path d="M269.366 82.1826H285.22V118.912H310.554V131.537H269.366V82.1826Z" fill="black"/>
<path d="M345.978 82.1826C348.462 82.1826 350.749 82.6982 352.832 83.7243C354.915 84.7555 356.566 86.1982 357.79 88.0576C359.009 89.9222 359.624 92.0055 359.624 94.3076C359.624 100.381 356.874 104.203 351.374 105.787V106.058C357.634 107.506 360.769 111.62 360.769 118.412C360.769 120.995 360.129 123.282 358.853 125.266C357.587 127.256 355.853 128.797 353.644 129.891C351.446 130.99 349.04 131.537 346.415 131.537H313.124V82.1826H345.978ZM328.978 101.412H339.874C340.926 101.412 341.801 101.047 342.499 100.308C343.191 99.5576 343.54 98.6357 343.54 97.5368V96.8076C343.54 95.7555 343.176 94.8597 342.457 94.1201C341.749 93.3857 340.884 93.016 339.874 93.016H328.978V101.412ZM328.978 120.058H341.04C342.082 120.058 342.946 119.693 343.644 118.953C344.337 118.203 344.686 117.282 344.686 116.183V115.474C344.686 114.365 344.337 113.443 343.644 112.703C342.946 111.969 342.082 111.599 341.04 111.599H328.978V120.058Z" fill="black"/>
<mask id="mask0_35_332" style="mask-type:luminance" maskUnits="userSpaceOnUse" x="0" y="0" width="136" height="147">
<path d="M0.447754 0.474121H135.448V146.474H0.447754V0.474121Z" fill="white"/>
</mask>
<g mask="url(#mask0_35_332)">
<path fill-rule="evenodd" clip-rule="evenodd" d="M27.479 92.1982C12.5467 92.1982 0.447754 104.339 0.447754 119.313C0.447754 134.292 12.5467 146.427 27.479 146.427C42.4061 146.427 54.505 134.292 54.505 119.313C54.505 118.886 54.4946 118.459 54.479 118.037C54.479 118.099 54.4842 118.162 54.4894 118.224V20.891C57.6613 23.0889 60.9009 24.9378 64.1248 26.5732C86.2342 37.7868 99.9009 38.0576 94.2082 75.9482C90.9842 58.7139 83.0728 52.4899 64.1248 50.0368V132.703H115.88L83.6821 85.4899C89.9321 84.042 112.448 89.3128 127.63 70.667C133 64.068 135.443 55.2139 135.443 44.5107V44.1357C135.443 30.4118 131.078 19.7087 122.359 12.0316C113.635 4.35449 101.427 0.510742 85.7394 0.510742H39.9894V95.2712C40.0259 95.292 40.0623 95.3128 40.0988 95.3337C36.328 93.3337 32.0363 92.1982 27.479 92.1982Z" fill="black"/>
</g>
</svg>
