<svg width="361" height="146" viewBox="0 0 361 146" fill="none" xmlns="http://www.w3.org/2000/svg">
<path d="M117.776 81.7085H160.464V93.5418H133.631V100.354H156.589V111.688H133.631V119.229H160.964V131.063H117.776V81.7085Z" fill="white"/>
<path d="M178.896 131.063L161.396 81.7085H178.312L188.229 114.708H188.5L198.479 81.7085H214.687L197.271 131.063H178.896Z" fill="white"/>
<path d="M250.282 131.063L248.199 124.104H230.907L228.824 131.063H212.595L230.616 81.7085H249.053L267.053 131.063H250.282ZM234.199 113.063H244.886L239.72 95.4793H239.428L234.199 113.063Z" fill="white"/>
<path d="M268.918 81.7085H284.773V118.438H310.106V131.063H268.918V81.7085Z" fill="white"/>
<path d="M345.53 81.7085C348.014 81.7085 350.301 82.2241 352.384 83.2502C354.467 84.2814 356.118 85.7241 357.342 87.5835C358.561 89.4481 359.176 91.5314 359.176 93.8335C359.176 99.9064 356.426 103.729 350.926 105.313V105.583C357.186 107.031 360.322 111.146 360.322 117.938C360.322 120.521 359.681 122.807 358.405 124.792C357.139 126.781 355.405 128.323 353.197 129.417C350.999 130.516 348.592 131.063 345.967 131.063H312.676V81.7085H345.53ZM328.53 100.938H339.426C340.478 100.938 341.353 100.573 342.051 99.8335C342.743 99.0835 343.092 98.1616 343.092 97.0627V96.3335C343.092 95.2814 342.728 94.3856 342.009 93.646C341.301 92.9116 340.436 92.5418 339.426 92.5418H328.53V100.938ZM328.53 119.583H340.592C341.634 119.583 342.499 119.219 343.197 118.479C343.889 117.729 344.238 116.807 344.238 115.708V115C344.238 113.891 343.889 112.969 343.197 112.229C342.499 111.495 341.634 111.125 340.592 111.125H328.53V119.583Z" fill="white"/>
<mask id="mask0_35_544" style="mask-type:luminance" maskUnits="userSpaceOnUse" x="0" y="0" width="135" height="146">
<path d="M0 0H135V146H0V0Z" fill="white"/>
</mask>
<g mask="url(#mask0_35_544)">
<path fill-rule="evenodd" clip-rule="evenodd" d="M27.0417 91.4897C12.1042 91.4897 0 103.599 0 118.537C0 133.474 12.1042 145.578 27.0417 145.578C41.9792 145.578 54.0833 133.474 54.0833 118.537C54.0833 118.104 54.0729 117.682 54.0521 117.261C54.0573 117.323 54.0625 117.386 54.0677 117.448V20.3647C57.2396 22.5575 60.4792 24.4012 63.7083 26.0314C85.8229 37.2137 99.4948 37.4845 93.8021 75.2814C90.5781 58.0887 82.6615 51.8856 63.7083 49.4377V131.891H115.484L83.276 84.797C89.526 83.3543 112.052 88.6147 127.24 70.0158C132.615 63.4272 135.057 54.5991 135.057 43.9272V43.547C135.057 29.8595 130.693 19.1877 121.969 11.5262C113.24 3.86995 101.026 0.0366211 85.3281 0.0366211H39.5573V94.5575C39.5938 94.5731 39.6302 94.5939 39.6667 94.6147C35.901 92.6252 31.6042 91.4897 27.0417 91.4897Z" fill="white"/>
</g>
</svg>
